<svg width="11.52pt" height="11.52pt" fill="currentColor" viewBox="0 0 11.52 11.52" xmlns="http://www.w3.org/2000/svg">
    <path transform="matrix(0.72 0 0 0.72 0.720000000000002 1.44)" fill-rule="evenodd" d="M0 0.75C0 0.336 0.418 0 0.933 0L13.067 0C13.582 0 14 0.336 14 0.75C14 1.164 13.582 1.5 13.067 1.5L0.933 1.5C0.418 1.5 0 1.164 0 0.75ZM0 11.25C0 10.836 0.418 10.5 0.933 10.5L13.067 10.5C13.582 10.5 14 10.836 14 11.25C14 11.664 13.582 12 13.067 12L0.933 12C0.418 12 0 11.664 0 11.25ZM5.95656 6C5.95656 5.586 6.35456 5.25 6.84556 5.25L13.0666 5.25C13.5576 5.25 13.9556 5.586 13.9556 6C13.9556 6.414 13.5576 6.75 13.0666 6.75L6.84656 6.75C6.35456 6.75 5.95656 6.414 5.95656 6Z" />
</svg>